<svg width="131" height="19" viewBox="0 0 131 19" fill="none" xmlns="http://www.w3.org/2000/svg">
<path d="M7.112 11.4L4.856 13.752V18H0.992V1.2H4.856V9.048L12.296 1.2H16.616L9.656 8.688L17.024 18H12.488L7.112 11.4ZM34.1456 18L34.1216 7.92L29.1776 16.224H27.4256L22.5056 8.136V18H18.8576V1.2H22.0736L28.3616 11.64L34.5536 1.2H37.7456L37.7936 18H34.1456ZM46.8235 4.896C48.8235 4.896 50.3595 5.376 51.4315 6.336C52.5035 7.28 53.0395 8.712 53.0395 10.632V18H49.5355V16.392C48.8315 17.592 47.5195 18.192 45.5995 18.192C44.6075 18.192 43.7435 18.024 43.0075 17.688C42.2875 17.352 41.7355 16.888 41.3515 16.296C40.9675 15.704 40.7755 15.032 40.7755 14.28C40.7755 13.08 41.2235 12.136 42.1195 11.448C43.0315 10.76 44.4315 10.416 46.3195 10.416H49.2955C49.2955 9.6 49.0475 8.976 48.5515 8.544C48.0555 8.096 47.3115 7.872 46.3195 7.872C45.6315 7.872 44.9515 7.984 44.2795 8.208C43.6235 8.416 43.0635 8.704 42.5995 9.072L41.2555 6.456C41.9595 5.96 42.7995 5.576 43.7755 5.304C44.7675 5.032 45.7835 4.896 46.8235 4.896ZM46.5355 15.672C47.1755 15.672 47.7435 15.528 48.2395 15.24C48.7355 14.936 49.0875 14.496 49.2955 13.92V12.6H46.7275C45.1915 12.6 44.4235 13.104 44.4235 14.112C44.4235 14.592 44.6075 14.976 44.9755 15.264C45.3595 15.536 45.8795 15.672 46.5355 15.672ZM60.104 6.792C60.552 6.168 61.152 5.696 61.904 5.376C62.672 5.056 63.552 4.896 64.544 4.896V8.352C64.128 8.32 63.848 8.304 63.704 8.304C62.632 8.304 61.792 8.608 61.184 9.216C60.576 9.808 60.272 10.704 60.272 11.904V18H56.528V5.088H60.104V6.792ZM72.4142 12.936L70.6142 14.712V18H66.8702V0.191999H70.6142V10.272L76.0862 5.088H80.5502L75.1742 10.56L81.0302 18H76.4942L72.4142 12.936ZM94.8994 11.592C94.8994 11.64 94.8754 11.976 94.8274 12.6H85.0594C85.2354 13.4 85.6514 14.032 86.3074 14.496C86.9634 14.96 87.7794 15.192 88.7554 15.192C89.4274 15.192 90.0194 15.096 90.5314 14.904C91.0594 14.696 91.5474 14.376 91.9954 13.944L93.9874 16.104C92.7714 17.496 90.9954 18.192 88.6594 18.192C87.2034 18.192 85.9154 17.912 84.7954 17.352C83.6754 16.776 82.8114 15.984 82.2034 14.976C81.5954 13.968 81.2914 12.824 81.2914 11.544C81.2914 10.28 81.5874 9.144 82.1794 8.136C82.7874 7.112 83.6114 6.32 84.6514 5.76C85.7074 5.184 86.8834 4.896 88.1794 4.896C89.4434 4.896 90.5874 5.168 91.6114 5.712C92.6354 6.256 93.4354 7.04 94.0114 8.064C94.6034 9.072 94.8994 10.248 94.8994 11.592ZM88.2034 7.728C87.3554 7.728 86.6434 7.968 86.0674 8.448C85.4914 8.928 85.1394 9.584 85.0114 10.416H91.3714C91.2434 9.6 90.8914 8.952 90.3154 8.472C89.7394 7.976 89.0354 7.728 88.2034 7.728ZM105.82 17.376C105.452 17.648 104.996 17.856 104.452 18C103.924 18.128 103.364 18.192 102.772 18.192C101.236 18.192 100.044 17.8 99.1961 17.016C98.3641 16.232 97.9481 15.08 97.9481 13.56V8.256H95.9561V5.376H97.9481V2.232H101.692V5.376H104.908V8.256H101.692V13.512C101.692 14.056 101.828 14.48 102.1 14.784C102.388 15.072 102.788 15.216 103.3 15.216C103.892 15.216 104.396 15.056 104.812 14.736L105.82 17.376ZM120.271 11.592C120.271 11.64 120.247 11.976 120.199 12.6H110.431C110.607 13.4 111.023 14.032 111.679 14.496C112.335 14.96 113.151 15.192 114.127 15.192C114.799 15.192 115.391 15.096 115.903 14.904C116.431 14.696 116.919 14.376 117.367 13.944L119.359 16.104C118.143 17.496 116.367 18.192 114.031 18.192C112.575 18.192 111.287 17.912 110.167 17.352C109.047 16.776 108.183 15.984 107.575 14.976C106.967 13.968 106.663 12.824 106.663 11.544C106.663 10.28 106.959 9.144 107.551 8.136C108.159 7.112 108.983 6.32 110.023 5.76C111.079 5.184 112.255 4.896 113.551 4.896C114.815 4.896 115.959 5.168 116.983 5.712C118.007 6.256 118.807 7.04 119.383 8.064C119.975 9.072 120.271 10.248 120.271 11.592ZM113.575 7.728C112.727 7.728 112.015 7.968 111.439 8.448C110.863 8.928 110.511 9.584 110.383 10.416H116.743C116.615 9.6 116.263 8.952 115.687 8.472C115.111 7.976 114.407 7.728 113.575 7.728ZM126.44 6.792C126.888 6.168 127.488 5.696 128.24 5.376C129.008 5.056 129.888 4.896 130.88 4.896V8.352C130.464 8.32 130.184 8.304 130.04 8.304C128.968 8.304 128.128 8.608 127.52 9.216C126.912 9.808 126.608 10.704 126.608 11.904V18H122.864V5.088H126.44V6.792Z" fill="white"/>
</svg>
