<svg width="19" height="20" viewBox="0 0 19 20" fill="none" xmlns="http://www.w3.org/2000/svg">
<path d="M18.6311 7.41231C18.5734 7.2425 18.4673 7.09329 18.3258 6.9831C18.1843 6.87291 18.0137 6.80657 17.8349 6.79226L12.6057 6.37675L10.3429 1.36774C10.2709 1.20641 10.1536 1.06938 10.0054 0.973198C9.85721 0.877013 9.68432 0.825781 9.50762 0.825684C9.33093 0.825587 9.15798 0.876629 9.00966 0.972651C8.86133 1.06867 8.74397 1.20557 8.67173 1.36682L6.40891 6.37675L1.17976 6.79226C1.00407 6.80618 0.836105 6.87042 0.695967 6.9773C0.555829 7.08417 0.449449 7.22916 0.389554 7.39491C0.329659 7.56066 0.318785 7.74016 0.358232 7.91193C0.39768 8.0837 0.485779 8.24047 0.61199 8.36348L4.4763 12.1306L3.10962 18.0486C3.06812 18.2277 3.08142 18.4152 3.14779 18.5866C3.21417 18.7581 3.33055 18.9057 3.48183 19.0102C3.63312 19.1147 3.81233 19.1714 3.9962 19.1728C4.18008 19.1742 4.36013 19.1203 4.51299 19.0181L9.50733 15.6885L14.5017 19.0181C14.6579 19.1218 14.8422 19.1752 15.0297 19.1711C15.2171 19.167 15.3989 19.1056 15.5504 18.9951C15.702 18.8846 15.816 18.7304 15.8773 18.5531C15.9386 18.3759 15.9441 18.1841 15.8931 18.0036L14.2155 12.1333L18.3761 8.38917C18.6485 8.14335 18.7485 7.75994 18.6311 7.41231Z" fill="#F3CD03"/>
</svg>
